<svg width="288" height="161" viewBox="0 0 288 161" fill="none" xmlns="http://www.w3.org/2000/svg">
<g clip-path="url(#clip0_75_807)">
<rect y="29" width="288" height="132" rx="32" fill="#B5FFA2"/>
<g clip-path="url(#clip1_75_807)">
<path d="M260 56.5561L265.778 50.7781L266.761 51.7613L260.983 57.5394L266.761 63.3174L265.778 64.3006L260 58.5226L254.222 64.3006L253.239 63.3174L259.017 57.5394L253.239 51.7613L254.222 50.7781L260 56.5561Z" fill="#333333"/>
</g>
<circle cx="20.6074" cy="95.2955" r="9.29547" fill="#7DED61"/>
<circle cx="80.0986" cy="133.717" r="3.71819" fill="#7DED61"/>
<path d="M79.4438 97.0254C82.4971 104.548 78.8737 113.122 71.3507 116.175C70.5208 116.512 69.6781 116.768 68.8315 116.946C64.1204 117.937 58.8591 119.284 56.3382 123.386C53.3951 128.174 55.0036 134.393 59.3496 137.957C68.015 145.064 75.0268 154.432 79.3829 165.619C92.9059 200.348 75.7149 239.464 40.9856 252.987C6.25636 266.51 -32.8599 249.319 -46.3829 214.59C-59.9059 179.861 -42.7149 140.745 -7.98562 127.222C7.18342 121.315 23.1894 121.268 37.5341 125.982C42.7299 127.69 48.6536 126.072 51.5174 121.413L52.5823 119.68C54.694 116.244 53.7172 111.819 52.2006 108.082C49.1473 100.559 52.7707 91.9855 60.2937 88.9322C67.8167 85.8789 76.3906 89.5024 79.4438 97.0254Z" fill="#7DED61"/>
<path d="M104.632 76H107.44L115.792 58H112.984L108.184 68.344L103.072 58H100.12L106.792 71.368L104.632 76ZM113.783 70.024C113.783 73.6 116.375 76.216 119.88 76.216C122.856 76.216 125.112 74.368 125.519 71.896L123.048 71.464C122.736 72.952 121.608 73.936 119.88 73.936C117.816 73.936 116.375 72.376 116.375 70.024C116.375 67.648 117.839 66.136 119.903 66.136C121.488 66.136 122.592 67.048 122.952 68.488L125.448 68.08C124.896 65.536 122.808 63.856 119.903 63.856C116.399 63.856 113.783 66.448 113.783 70.024ZM127.192 76H129.664V66.232H135.016V76H137.488V64.072H127.192V76ZM145.671 76.216C148.551 76.216 150.615 74.776 151.263 72.4L148.887 71.968C148.455 73.24 147.423 74.032 145.671 74.032C143.679 74.032 142.263 72.928 142.023 70.72H151.263C151.311 70.336 151.359 69.928 151.359 69.568C151.359 66.184 148.959 63.856 145.527 63.856C141.999 63.856 139.455 66.472 139.455 70.024C139.455 73.624 141.831 76.216 145.671 76.216ZM145.527 65.944C147.279 65.944 148.479 67 148.719 68.728H142.119C142.527 66.88 143.943 65.944 145.527 65.944ZM153.403 76H169.195V64.072H166.699V73.84H162.523V64.072H160.051V73.84H155.875V64.072H153.403V76ZM172.086 76H174.558V70.864H180.078V76H182.574V64.072H180.078V68.704H174.558V64.072H172.086V76ZM190.777 63.856C187.177 63.856 184.513 66.472 184.513 70.024C184.513 73.6 187.177 76.216 190.777 76.216C194.401 76.216 197.041 73.6 197.041 70.024C197.041 66.472 194.401 63.856 190.777 63.856ZM190.777 66.136C192.961 66.136 194.449 67.696 194.449 70.024C194.449 72.352 192.961 73.936 190.777 73.936C188.593 73.936 187.105 72.352 187.105 70.024C187.105 67.696 188.593 66.136 190.777 66.136ZM199.792 58L200.2 70.36H202.336L202.72 58H199.792ZM201.256 76.24C202.288 76.24 202.984 75.568 202.984 74.56C202.984 73.528 202.288 72.856 201.256 72.856C200.248 72.856 199.528 73.528 199.528 74.56C199.528 75.568 200.248 76.24 201.256 76.24Z" fill="#333333"/>
<path d="M105.698 100.168C104.205 100.168 102.977 99.678 102.016 98.698C101.045 97.7087 100.56 96.5093 100.56 95.1C100.56 93.6907 101.045 92.4913 102.016 91.502C102.977 90.522 104.205 90.032 105.698 90.032C106.594 90.032 107.42 90.2513 108.176 90.69C108.932 91.1193 109.52 91.7027 109.94 92.44L109.072 92.944C108.764 92.3467 108.307 91.8707 107.7 91.516C107.093 91.1613 106.426 90.984 105.698 90.984C104.466 90.984 103.467 91.3807 102.702 92.174C101.927 92.9767 101.54 93.952 101.54 95.1C101.54 96.248 101.927 97.2233 102.702 98.026C103.467 98.8193 104.466 99.216 105.698 99.216C106.426 99.216 107.093 99.0387 107.7 98.684C108.307 98.3293 108.764 97.8533 109.072 97.256L109.94 97.746C109.539 98.4833 108.955 99.0713 108.19 99.51C107.425 99.9487 106.594 100.168 105.698 100.168ZM111.412 93H117.292V100H116.368V93.896H112.336V100H111.412V93ZM125.266 94.372V93H126.19V100H125.266V98.628C124.622 99.6547 123.679 100.168 122.438 100.168C121.439 100.168 120.585 99.8133 119.876 99.104C119.176 98.3947 118.826 97.5267 118.826 96.5C118.826 95.4733 119.176 94.6053 119.876 93.896C120.585 93.1867 121.439 92.832 122.438 92.832C123.679 92.832 124.622 93.3453 125.266 94.372ZM120.548 98.474C121.08 99.006 121.733 99.272 122.508 99.272C123.282 99.272 123.936 99.006 124.468 98.474C125 97.9233 125.266 97.2653 125.266 96.5C125.266 95.7253 125 95.072 124.468 94.54C123.936 93.9987 123.282 93.728 122.508 93.728C121.733 93.728 121.08 93.9987 120.548 94.54C120.016 95.072 119.75 95.7253 119.75 96.5C119.75 97.2653 120.016 97.9233 120.548 98.474ZM131.408 100.168C130.353 100.168 129.476 99.818 128.776 99.118C128.076 98.3993 127.726 97.5267 127.726 96.5C127.726 95.464 128.076 94.596 128.776 93.896C129.476 93.1867 130.353 92.832 131.408 92.832C132.099 92.832 132.719 93 133.27 93.336C133.821 93.6627 134.222 94.106 134.474 94.666L133.718 95.1C133.531 94.68 133.228 94.3487 132.808 94.106C132.397 93.854 131.931 93.728 131.408 93.728C130.633 93.728 129.98 93.9987 129.448 94.54C128.916 95.072 128.65 95.7253 128.65 96.5C128.65 97.2653 128.916 97.9233 129.448 98.474C129.98 99.006 130.633 99.272 131.408 99.272C131.921 99.272 132.383 99.1507 132.794 98.908C133.214 98.6653 133.541 98.3293 133.774 97.9L134.544 98.348C134.255 98.908 133.83 99.3513 133.27 99.678C132.71 100.005 132.089 100.168 131.408 100.168ZM136.795 98.39L140.967 93H141.751V100H140.827V94.61L136.655 100H135.871V93H136.795V98.39ZM146.813 100.168C145.814 100.168 144.974 99.8367 144.293 99.174C143.621 98.502 143.285 97.634 143.285 96.57C143.285 95.3753 143.462 94.4607 143.817 93.826C144.171 93.182 144.89 92.5987 145.973 92.076C146.318 91.9173 146.589 91.796 146.785 91.712C147.111 91.5813 147.368 91.4693 147.555 91.376C148.367 91.0027 148.777 90.5407 148.787 89.99L149.515 90.41C149.468 90.6433 149.393 90.8533 149.291 91.04C149.169 91.2453 149.048 91.4087 148.927 91.53C148.815 91.6513 148.637 91.782 148.395 91.922C148.236 92.0153 148.045 92.118 147.821 92.23L147.121 92.524L146.463 92.804C145.819 93.084 145.338 93.378 145.021 93.686C144.713 93.9847 144.493 94.3767 144.363 94.862C144.661 94.4607 145.053 94.1573 145.539 93.952C146.024 93.7373 146.514 93.63 147.009 93.63C147.942 93.63 148.712 93.938 149.319 94.554C149.935 95.1607 150.243 95.94 150.243 96.892C150.243 97.8347 149.916 98.6187 149.263 99.244C148.619 99.86 147.802 100.168 146.813 100.168ZM144.993 98.558C145.478 99.0153 146.085 99.244 146.813 99.244C147.541 99.244 148.138 99.0247 148.605 98.586C149.081 98.138 149.319 97.5733 149.319 96.892C149.319 96.2013 149.095 95.6367 148.647 95.198C148.208 94.75 147.62 94.526 146.883 94.526C146.22 94.526 145.618 94.736 145.077 95.156C144.535 95.5573 144.265 96.108 144.265 96.808C144.265 97.5173 144.507 98.1007 144.993 98.558ZM157.514 99.118C156.795 99.818 155.927 100.168 154.91 100.168C153.874 100.168 153.001 99.818 152.292 99.118C151.583 98.4087 151.228 97.536 151.228 96.5C151.228 95.464 151.583 94.596 152.292 93.896C153.001 93.1867 153.874 92.832 154.91 92.832C155.937 92.832 156.805 93.1867 157.514 93.896C158.233 94.596 158.592 95.464 158.592 96.5C158.592 97.5267 158.233 98.3993 157.514 99.118ZM152.95 98.474C153.482 99.006 154.135 99.272 154.91 99.272C155.685 99.272 156.338 99.006 156.87 98.474C157.402 97.9233 157.668 97.2653 157.668 96.5C157.668 95.7253 157.402 95.072 156.87 94.54C156.338 93.9987 155.685 93.728 154.91 93.728C154.135 93.728 153.482 93.9987 152.95 94.54C152.418 95.072 152.152 95.7253 152.152 96.5C152.152 97.2653 152.418 97.9233 152.95 98.474ZM167.25 96.402C168.062 96.71 168.468 97.27 168.468 98.082C168.468 98.67 168.24 99.1647 167.782 99.566C167.344 99.9673 166.7 100.168 165.85 100.168C164.432 100.168 163.508 99.608 163.078 98.488L163.862 98.026C164.161 98.8567 164.824 99.272 165.85 99.272C166.382 99.272 166.798 99.16 167.096 98.936C167.395 98.7027 167.544 98.3993 167.544 98.026C167.544 97.69 167.423 97.424 167.18 97.228C166.938 97.0227 166.611 96.92 166.2 96.92H165.178V96.024H165.92C166.322 96.024 166.634 95.926 166.858 95.73C167.092 95.5247 167.208 95.2447 167.208 94.89C167.208 94.554 167.068 94.2787 166.788 94.064C166.518 93.84 166.158 93.728 165.71 93.728C164.842 93.728 164.259 94.078 163.96 94.778L163.19 94.33C163.657 93.3313 164.497 92.832 165.71 92.832C166.457 92.832 167.045 93.028 167.474 93.42C167.913 93.8027 168.132 94.274 168.132 94.834C168.132 95.5527 167.838 96.0753 167.25 96.402ZM175.893 94.372V93H176.817V100H175.893V98.628C175.249 99.6547 174.306 100.168 173.065 100.168C172.066 100.168 171.212 99.8133 170.503 99.104C169.803 98.3947 169.453 97.5267 169.453 96.5C169.453 95.4733 169.803 94.6053 170.503 93.896C171.212 93.1867 172.066 92.832 173.065 92.832C174.306 92.832 175.249 93.3453 175.893 94.372ZM171.175 98.474C171.707 99.006 172.36 99.272 173.135 99.272C173.909 99.272 174.563 99.006 175.095 98.474C175.627 97.9233 175.893 97.2653 175.893 96.5C175.893 95.7253 175.627 95.072 175.095 94.54C174.563 93.9987 173.909 93.728 173.135 93.728C172.36 93.728 171.707 93.9987 171.175 94.54C170.643 95.072 170.377 95.7253 170.377 96.5C170.377 97.2653 170.643 97.9233 171.175 98.474ZM188.139 99.118C187.42 99.818 186.552 100.168 185.535 100.168C184.499 100.168 183.626 99.818 182.917 99.118C182.208 98.4087 181.853 97.536 181.853 96.5C181.853 95.464 182.208 94.596 182.917 93.896C183.626 93.1867 184.499 92.832 185.535 92.832C186.562 92.832 187.43 93.1867 188.139 93.896C188.858 94.596 189.217 95.464 189.217 96.5C189.217 97.5267 188.858 98.3993 188.139 99.118ZM183.575 98.474C184.107 99.006 184.76 99.272 185.535 99.272C186.31 99.272 186.963 99.006 187.495 98.474C188.027 97.9233 188.293 97.2653 188.293 96.5C188.293 95.7253 188.027 95.072 187.495 94.54C186.963 93.9987 186.31 93.728 185.535 93.728C184.76 93.728 184.107 93.9987 183.575 94.54C183.043 95.072 182.777 95.7253 182.777 96.5C182.777 97.2653 183.043 97.9233 183.575 98.474ZM189.65 93H195.53V93.896H193.052V100H192.128V93.896H189.65V93ZM199.994 96.402C200.806 96.71 201.212 97.27 201.212 98.082C201.212 98.67 200.984 99.1647 200.526 99.566C200.088 99.9673 199.444 100.168 198.594 100.168C197.176 100.168 196.252 99.608 195.822 98.488L196.606 98.026C196.905 98.8567 197.568 99.272 198.594 99.272C199.126 99.272 199.542 99.16 199.84 98.936C200.139 98.7027 200.288 98.3993 200.288 98.026C200.288 97.69 200.167 97.424 199.924 97.228C199.682 97.0227 199.355 96.92 198.944 96.92H197.922V96.024H198.664C199.066 96.024 199.378 95.926 199.602 95.73C199.836 95.5247 199.952 95.2447 199.952 94.89C199.952 94.554 199.812 94.2787 199.532 94.064C199.262 93.84 198.902 93.728 198.454 93.728C197.586 93.728 197.003 94.078 196.704 94.778L195.934 94.33C196.401 93.3313 197.241 92.832 198.454 92.832C199.201 92.832 199.789 93.028 200.218 93.42C200.657 93.8027 200.876 94.274 200.876 94.834C200.876 95.5527 200.582 96.0753 199.994 96.402ZM203.541 95.66H205.459C206.103 95.66 206.653 95.8653 207.111 96.276C207.568 96.6773 207.797 97.1953 207.797 97.83C207.797 98.474 207.568 98.9967 207.111 99.398C206.672 99.7993 206.121 100 205.459 100H202.617V93H203.541V95.66ZM208.777 100V93H209.701V100H208.777ZM203.541 99.104H205.459C205.86 99.104 206.196 98.9873 206.467 98.754C206.737 98.5113 206.873 98.2033 206.873 97.83C206.873 97.4567 206.737 97.1533 206.467 96.92C206.196 96.6773 205.86 96.556 205.459 96.556H203.541V99.104ZM216.12 96.402C216.885 96.682 217.268 97.228 217.268 98.04C217.268 98.6187 217.072 99.09 216.68 99.454C216.297 99.818 215.76 100 215.07 100H211.668V93H214.79C215.462 93 215.984 93.1727 216.358 93.518C216.74 93.8633 216.932 94.316 216.932 94.876C216.932 95.576 216.661 96.0847 216.12 96.402ZM214.79 93.896H212.592V96.024H214.79C215.602 96.024 216.008 95.66 216.008 94.932C216.008 94.6053 215.9 94.3533 215.686 94.176C215.48 93.9893 215.182 93.896 214.79 93.896ZM212.592 99.104H215.07C215.48 99.104 215.793 99.006 216.008 98.81C216.232 98.614 216.344 98.3387 216.344 97.984C216.344 97.648 216.232 97.3867 216.008 97.2C215.793 97.0133 215.48 96.92 215.07 96.92H212.592V99.104ZM228.034 99.118C227.315 99.818 226.447 100.168 225.43 100.168C224.394 100.168 223.521 99.818 222.812 99.118C222.102 98.4087 221.748 97.536 221.748 96.5C221.748 95.464 222.102 94.596 222.812 93.896C223.521 93.1867 224.394 92.832 225.43 92.832C226.456 92.832 227.324 93.1867 228.034 93.896C228.752 94.596 229.112 95.464 229.112 96.5C229.112 97.5267 228.752 98.3993 228.034 99.118ZM223.47 98.474C224.002 99.006 224.655 99.272 225.43 99.272C226.204 99.272 226.858 99.006 227.39 98.474C227.922 97.9233 228.188 97.2653 228.188 96.5C228.188 95.7253 227.922 95.072 227.39 94.54C226.858 93.9987 226.204 93.728 225.43 93.728C224.655 93.728 224.002 93.9987 223.47 94.54C222.938 95.072 222.672 95.7253 222.672 96.5C222.672 97.2653 222.938 97.9233 223.47 98.474ZM105.936 118.052V115H106.86V122H105.936V118.948H101.904V122H100.98V115H101.904V118.052H105.936ZM114.834 116.372V115H115.758V122H114.834V120.628C114.19 121.655 113.247 122.168 112.006 122.168C111.007 122.168 110.153 121.813 109.444 121.104C108.744 120.395 108.394 119.527 108.394 118.5C108.394 117.473 108.744 116.605 109.444 115.896C110.153 115.187 111.007 114.832 112.006 114.832C113.247 114.832 114.19 115.345 114.834 116.372ZM110.116 120.474C110.648 121.006 111.301 121.272 112.076 121.272C112.851 121.272 113.504 121.006 114.036 120.474C114.568 119.923 114.834 119.265 114.834 118.5C114.834 117.725 114.568 117.072 114.036 116.54C113.504 115.999 112.851 115.728 112.076 115.728C111.301 115.728 110.648 115.999 110.116 116.54C109.584 117.072 109.318 117.725 109.318 118.5C109.318 119.265 109.584 119.923 110.116 120.474ZM126.17 121.104V115H127.094V122H117.714V115H118.638V121.104H121.942V115H122.866V121.104H126.17ZM132.282 114.832C133.328 114.832 134.163 115.201 134.788 115.938C135.432 116.666 135.754 117.529 135.754 118.528C135.754 118.575 135.745 118.719 135.726 118.962H129.58C129.674 119.662 129.972 120.222 130.476 120.642C130.98 121.062 131.61 121.272 132.366 121.272C133.43 121.272 134.182 120.875 134.62 120.082L135.432 120.558C135.124 121.062 134.7 121.459 134.158 121.748C133.626 122.028 133.024 122.168 132.352 122.168C131.251 122.168 130.355 121.823 129.664 121.132C128.974 120.441 128.628 119.564 128.628 118.5C128.628 117.445 128.969 116.573 129.65 115.882C130.332 115.182 131.209 114.832 132.282 114.832ZM132.282 115.728C131.554 115.728 130.943 115.943 130.448 116.372C129.963 116.801 129.674 117.366 129.58 118.066H134.802C134.7 117.319 134.415 116.745 133.948 116.344C133.463 115.933 132.908 115.728 132.282 115.728ZM141.984 113.88H138.344V113.068H141.984V113.88ZM138.148 120.39L142.32 115H143.104V122H142.18V116.61L138.008 122H137.224V115H138.148V120.39ZM150.462 118.36L154.214 122H152.982L149.482 118.626V122H148.558V115H149.482V118.094L152.814 115H154.074L150.462 118.36ZM160.645 121.118C159.926 121.818 159.058 122.168 158.041 122.168C157.005 122.168 156.132 121.818 155.423 121.118C154.713 120.409 154.359 119.536 154.359 118.5C154.359 117.464 154.713 116.596 155.423 115.896C156.132 115.187 157.005 114.832 158.041 114.832C159.067 114.832 159.935 115.187 160.645 115.896C161.363 116.596 161.723 117.464 161.723 118.5C161.723 119.527 161.363 120.399 160.645 121.118ZM156.081 120.474C156.613 121.006 157.266 121.272 158.041 121.272C158.815 121.272 159.469 121.006 160.001 120.474C160.533 119.923 160.799 119.265 160.799 118.5C160.799 117.725 160.533 117.072 160.001 116.54C159.469 115.999 158.815 115.728 158.041 115.728C157.266 115.728 156.613 115.999 156.081 116.54C155.549 117.072 155.283 117.725 155.283 118.5C155.283 119.265 155.549 119.923 156.081 120.474ZM169.065 115H170.129V122H169.205V116.414L166.755 120.39H166.643L164.193 116.414V122H163.269V115H164.333L166.699 118.836L169.065 115ZM172.087 115H177.967V122H177.043V115.896H173.011V122H172.087V115ZM185.941 116.372V115H186.865V122H185.941V120.628C185.297 121.655 184.355 122.168 183.113 122.168C182.115 122.168 181.261 121.813 180.551 121.104C179.851 120.395 179.501 119.527 179.501 118.5C179.501 117.473 179.851 116.605 180.551 115.896C181.261 115.187 182.115 114.832 183.113 114.832C184.355 114.832 185.297 115.345 185.941 116.372ZM181.223 120.474C181.755 121.006 182.409 121.272 183.183 121.272C183.958 121.272 184.611 121.006 185.143 120.474C185.675 119.923 185.941 119.265 185.941 118.5C185.941 117.725 185.675 117.072 185.143 116.54C184.611 115.999 183.958 115.728 183.183 115.728C182.409 115.728 181.755 115.999 181.223 116.54C180.691 117.072 180.425 117.725 180.425 118.5C180.425 119.265 180.691 119.923 181.223 120.474ZM193.778 118.052V115H194.702V122H193.778V118.948H189.746V122H188.822V115H189.746V118.052H193.778ZM197.58 120.39L201.752 115H202.536V122H201.612V116.61L197.44 122H196.656V115H197.58V120.39ZM205.414 120.39L209.586 115H210.37V122H209.446V116.61L205.274 122H204.49V115H205.414V120.39ZM217.224 115.63C217.224 115.845 217.149 116.027 217 116.176C216.85 116.325 216.668 116.4 216.454 116.4C216.239 116.4 216.057 116.325 215.908 116.176C215.758 116.027 215.684 115.845 215.684 115.63C215.684 115.415 215.758 115.233 215.908 115.084C216.057 114.935 216.239 114.86 216.454 114.86C216.668 114.86 216.85 114.935 217 115.084C217.149 115.233 217.224 115.415 217.224 115.63ZM217.224 121.37C217.224 121.585 217.149 121.767 217 121.916C216.85 122.065 216.668 122.14 216.454 122.14C216.239 122.14 216.057 122.065 215.908 121.916C215.758 121.767 215.684 121.585 215.684 121.37C215.684 121.155 215.758 120.973 215.908 120.824C216.057 120.675 216.239 120.6 216.454 120.6C216.668 120.6 216.85 120.675 217 120.824C217.149 120.973 217.224 121.155 217.224 121.37ZM219.414 123.4H218.49C219.517 121.347 220.03 119.247 220.03 117.1C220.03 114.953 219.517 112.853 218.49 110.8H219.414C220.441 112.853 220.954 114.953 220.954 117.1C220.954 119.247 220.441 121.347 219.414 123.4Z" fill="#333333"/>
</g>
<path fill-rule="evenodd" clip-rule="evenodd" d="M58.796 56.32C74.2945 56.32 86.8585 43.7123 86.8585 28.16C86.8585 12.6077 74.2945 0 58.796 0C43.2974 0 30.7334 12.6077 30.7334 28.16C30.7334 36.917 34.7168 44.7405 40.9645 49.9053C40.9745 49.9135 40.9656 49.9295 40.9533 49.9253C40.9458 49.9227 40.938 49.9283 40.938 49.9362V57.494C40.938 60.4757 44.0829 62.4092 46.7435 61.0633L55.3148 56.7276C55.9798 56.3912 56.7253 56.2544 57.4698 56.2891C57.9093 56.3096 58.3514 56.32 58.796 56.32Z" fill="#7DED61"/>
<path fill-rule="evenodd" clip-rule="evenodd" d="M70.2077 17.3463C71.2668 18.1584 71.469 19.6744 70.6596 20.7356L58.6492 36.4829C58.2257 37.0381 57.5839 37.3832 56.8882 37.4295C56.1926 37.4757 55.5109 37.2188 55.0179 36.7245L47.3949 29.0814C46.4521 28.1362 46.4521 26.6063 47.3949 25.6611C48.3411 24.7124 49.878 24.7124 50.8242 25.6611L56.4849 31.3367L66.8098 17.7994C67.622 16.7344 69.1447 16.5313 70.2077 17.3463Z" fill="white"/>
<defs>
<clipPath id="clip0_75_807">
<rect y="29" width="288" height="132" rx="32" fill="white"/>
</clipPath>
<clipPath id="clip1_75_807">
<rect width="24" height="24" fill="white" transform="translate(248 45)"/>
</clipPath>
</defs>
</svg>
