<svg width="28" height="28" viewBox="0 0 28 28" fill="none" xmlns="http://www.w3.org/2000/svg">
<path d="M7 0C6.0375 0 5.25 0.7875 5.25 1.75V26.25C5.25 27.2125 6.0375 28 7 28H24.5C25.4625 28 26.25 27.2125 26.25 26.25V7L19.25 0H7Z" fill="#C2C4FF"/>
<path d="M21 7H26.25L19.25 0V5.25C19.25 6.2125 20.0375 7 21 7Z" fill="#797DDF"/>
<path d="M26.25 12.25L21 7H26.25V12.25Z" fill="#C2C4FF"/>
<path d="M22.75 22.75C22.75 23.2312 22.3563 23.625 21.875 23.625H2.625C2.14375 23.625 1.75 23.2312 1.75 22.75V14C1.75 13.5187 2.14375 13.125 2.625 13.125H21.875C22.3563 13.125 22.75 13.5187 22.75 14V22.75Z" fill="#585CC6"/>
<path d="M7.76384 16.581C7.76384 15.993 8.68783 15.993 8.68783 16.581V19.3442C8.68783 20.4432 8.16284 21.1082 6.95271 21.1082C6.35771 21.1082 5.86159 20.9464 5.42759 20.3872C5.07059 19.9602 5.74259 19.3451 6.10659 19.7922C6.40059 20.1562 6.71559 20.2402 7.02271 20.2262C7.41384 20.2122 7.75771 20.0364 7.76471 19.3442V16.581H7.76384Z" fill="white"/>
<path d="M9.91797 16.5783C9.91797 16.3473 10.1 16.0953 10.394 16.0953H12.0101C12.9201 16.0953 13.7391 16.7043 13.7391 17.8715C13.7391 18.9775 12.9201 19.5935 12.0101 19.5935H10.842V20.5175C10.842 20.8255 10.646 20.9996 10.394 20.9996C10.163 20.9996 9.91797 20.8255 9.91797 20.5175V16.5783ZM10.842 16.9764V18.7194H12.0101C12.4791 18.7194 12.8501 18.3055 12.8501 17.8715C12.8501 17.3824 12.4791 16.9764 12.0101 16.9764H10.842Z" fill="white"/>
<path d="M18.7342 20.4627C18.2372 20.8757 17.6282 21.0507 17.0131 21.0507C15.5431 21.0507 14.501 20.2116 14.501 18.5456C14.501 17.1334 15.6 16.0352 17.0752 16.0352C17.6282 16.0352 18.2364 16.2234 18.6704 16.6504C19.0965 17.0695 18.4814 17.6925 18.0622 17.3224C17.8032 17.0704 17.4392 16.8814 17.0752 16.8814C16.2291 16.8814 15.411 17.5595 15.411 18.5456C15.411 19.5816 16.0961 20.2116 17.0131 20.2116C17.4392 20.2116 17.8032 20.0847 18.0622 19.8966V19.0365H17.0131C16.3901 19.0365 16.4531 18.1825 17.0131 18.1825H18.4122C18.6712 18.1825 18.9084 18.3785 18.9084 18.5955V20.0856C18.9084 20.2116 18.8532 20.3289 18.7342 20.4627Z" fill="white"/>
<path d="M21.875 23.625H5.25V24.5H21.875C22.3563 24.5 22.75 24.1063 22.75 23.625V22.75C22.75 23.2313 22.3563 23.625 21.875 23.625Z" fill="#C2C4FF"/>
</svg>
