<svg width="320" height="1192" viewBox="0 0 320 1192" fill="none" xmlns="http://www.w3.org/2000/svg">
<path opacity="0.07" d="M37.7271 576.5L78.0012 572.229L37.7271 576.5ZM441.227 313.5L419.247 347.517L441.227 313.5ZM227.227 264L267.696 262.403L227.227 264ZM789.671 1116.16C440.733 982.96 269.509 898.574 181.473 821.791C139.063 784.801 117.027 750.362 103.59 713.109C89.5639 674.225 84.2055 630.726 78.0012 572.229L-2.54701 580.771C3.49869 637.774 9.51527 691.025 27.3955 740.594C45.8643 791.795 76.2667 837.511 128.231 882.834C228.946 970.676 414.221 1059.54 760.783 1191.84L789.671 1116.16ZM78.0012 572.229C69.8545 495.417 94.6224 394.598 150.313 336.889C177.032 309.202 210.406 291.713 251.924 289.935C294.249 288.122 349.544 302.477 419.247 347.517L463.207 279.483C384.245 228.462 312.5 206.266 248.458 209.009C183.608 211.786 131.287 239.96 92.0274 280.642C15.7621 359.671 -12.5548 486.412 -2.54701 580.771L78.0012 572.229ZM419.247 347.517C485.418 390.273 496.118 428.859 493.685 450.43C491.075 473.578 471.624 496.668 439.808 506.018C409.556 514.908 371.256 509.728 338.239 477.664C304.492 444.892 272.332 379.862 267.696 262.403L186.759 265.597C191.872 395.138 227.9 483.421 281.809 535.773C336.448 588.835 405.273 600.592 462.646 583.732C518.455 567.332 567.129 521.984 574.175 459.507C581.399 395.454 543.286 331.227 463.207 279.483L419.247 347.517ZM267.696 262.403C255.266 -52.4777 311.116 -209.238 407.034 -293.75C505.376 -380.398 656.173 -401.927 866.353 -415.585L861.101 -496.415C655.782 -483.073 475.788 -462.284 353.485 -354.525C228.758 -244.628 174.108 -54.8881 186.759 265.597L267.696 262.403Z" fill="white"/>
</svg>
